/vscmnt/brussel_pixiu_data/_data_brussel/112/vsc11236/PredSimResults/SUBJ10opt3D/trackIG/worker_15.mot
version=1
nRows=4
nColumns=50
inDegrees=yes
endheader
                time	         pelvis_tilt	         pelvis_list	     pelvis_rotation	           pelvis_tx	           pelvis_ty	           pelvis_tz	       hip_flexion_r	     hip_adduction_r	      hip_rotation_r	        knee_angle_r	       ankle_angle_r	         mtp_angle_r	       hip_flexion_l	     hip_adduction_l	      hip_rotation_l	        knee_angle_l	       ankle_angle_l	         mtp_angle_l	    lumbar_extension	      lumbar_bending	     lumbar_rotation	 ercspn_r/activation	 intobl_r/activation	 extobl_r/activation	    abd_r/activation	    add_r/activation	hamstrings_r/activation	bifemsh_r/activation	glut_max_r/activation	iliopsoas_r/activation	rect_fem_r/activation	  vasti_r/activation	gastroc_r/activation	 soleus_r/activation	tib_ant_r/activation	 ercspn_l/activation	 intobl_l/activation	 extobl_l/activation	    abd_l/activation	    add_l/activation	hamstrings_l/activation	bifemsh_l/activation	glut_max_l/activation	iliopsoas_l/activation	rect_fem_l/activation	  vasti_l/activation	gastroc_l/activation	 soleus_l/activation	tib_ant_l/activation	
          0.00000000	        -12.46754767	         -2.59622288	         14.57652789	          0.00000000	          0.78683140	         -0.01146501	         47.26090865	         -5.66864318	         -1.30332503	        -20.20413799	        -14.42004271	          0.25899497	         -2.74071530	         -2.27986879	          8.70074754	        -30.25425301	          3.05851235	         39.09490113	         -4.50736381	          0.00180231	         -3.13399660	          0.10994858	          0.08604319	          0.01693959	          0.03821589	          0.15074237	          0.08891909	          0.24803239	          0.17595299	          0.14732727	          0.01537104	          0.00999999	          0.02418041	          0.00999999	          0.13085302	          0.08738714	          0.09962307	          0.01192067	          0.04231975	          0.17873284	          0.06330419	          0.32382331	          0.01837736	          0.49761716	          0.00999999	          0.06056471	          0.17187373	          0.21021694	          0.01750677	
          0.01152409	        -12.36750493	         -2.49545176	         14.69572187	          0.02823343	          0.78618547	         -0.01080774	         47.43418438	         -5.40313773	         -1.36969739	        -24.98701930	         -9.24000595	          0.79860012	         -2.94488253	         -2.53675577	          8.27366226	        -32.74942101	         -0.09783764	         37.91112887	         -4.24606855	          0.26815702	         -3.04525079	          0.14942951	          0.07217976	          0.01421025	          0.17731813	          0.23850242	          0.07459228	          0.20806896	          0.41726341	          0.12358963	          0.01289443	          0.00999999	          0.02028442	          0.01352212	          0.10976974	          0.20499682	          0.08357162	          0.00999999	          0.03550111	          0.14993508	          0.05310450	          0.27164831	          0.01541637	          0.62398892	          0.00999999	          0.05080642	          0.14418112	          0.17634641	          0.01468604	
          0.02304818	        -12.27225621	         -2.37257848	         14.78118924	          0.05580825	          0.78576247	         -0.01000650	         47.47056490	         -5.05597786	         -1.16064776	        -29.77946095	         -3.29324701	          1.49385310	         -2.45012561	         -2.68998633	          7.90537916	        -36.23444558	         -3.08979503	         35.18611187	         -4.07875796	          0.50049302	         -2.90387000	          0.14709040	          0.06055002	          0.01192067	          0.24031150	          0.29399336	          0.06257384	          0.17454451	          0.50613283	          0.10367665	          0.01081686	          0.00999999	          0.01701616	          0.01134341	          0.09208344	          0.31639599	          0.09991049	          0.00999999	          0.02978111	          0.12577727	          0.04454821	          0.22787984	          0.01293245	          0.65605583	          0.00999999	          0.04262039	          0.12095039	          0.14793315	          0.27368591	
          0.03457228	        -12.17415502	         -2.22065241	         14.83405283	          0.08255169	          0.78562620	         -0.00905580	         47.53985321	         -4.64972490	         -0.77289437	        -34.25198516	          1.23590297	          2.23702367	         -1.39097484	         -2.75774950	          7.58898275	        -40.45562296	         -4.96675555	         30.66427293	         -4.00993156	          0.67843993	         -2.72358927	          0.21854275	          0.05079409	          0.00999999	          0.27945902	          0.33963524	          0.05249183	          0.14642158	          0.60825239	          0.08697208	          0.00999999	          0.00999999	          0.01427448	          0.11034390	          0.07724679	          0.40693686	          0.13752126	          0.00999999	          0.02498272	          0.10551180	          0.03737052	          0.19116342	          0.01084875	          0.55512520	          0.10983167	          0.03575332	          0.10146265	          0.12409789	          0.29292033	
